<svg fill="#009549" height="77px" viewBox="1 -12 511.99942 511" width="77px" xmlns="http://www.w3.org/2000/svg"><path d="m511.058594 447.175781-22.75-40.980469c-2.011719-3.621093-6.578125-4.925781-10.199219-2.914062-3.621094 2.007812-4.925781 6.574219-2.914063 10.195312l10.289063 18.539063-71.164063-41.085937v-186.160157c.539063-3.074219-.890624-6.199219-3.636718-7.78125l-146.527344-84.597656v-77.355469l10.210938 17.011719c1.40625 2.347656 3.886718 3.644531 6.4375 3.644531 1.3125 0 2.644531-.34375 3.851562-1.070312 3.550781-2.132813 4.703125-6.738282 2.570312-10.289063l-24.113281-40.191406c-1.355469-2.257813-3.796875-3.640625-6.429687-3.640625-2.636719 0-5.078125 1.382812-6.433594 3.640625l-24.113281 40.191406c-2.132813 3.550781-.980469 8.15625 2.570312 10.289063 3.554688 2.132812 8.160157.980468 10.292969-2.574219l10.15625-16.929687v77.335937l-145.691406 84.117187c-2.691406 1.136719-4.582032 3.804688-4.582032 6.910157v187.585937l-73.050781 42.175782 10.972657-19.765626c2.011718-3.621093.707031-8.1875-2.914063-10.195312-3.621094-2.011719-8.1875-.703125-10.199219 2.917969l-22.75 40.976562c-1.277344 2.304688-1.253906 5.109375.0625 7.390625s3.734375 3.703125 6.371094 3.75l46.863281.789063h.125c4.085938 0 7.429688-3.277344 7.5-7.375.070313-4.140625-3.234375-7.554688-7.375-7.625l-16.976562-.285157 69.894531-40.355468 145.390625 83.941406c1.140625.65625 2.433594 1.003906 3.75 1.003906h.109375c1.316406 0 2.613281-.347656 3.75-1.003906l145.507812-84.007812 69.976563 40.398437-18.378906.308594c-4.144531.070312-7.445313 3.484375-7.375 7.625.070312 4.097656 3.414062 7.375 7.496093 7.375h.128907l46.863281-.789063c2.632812-.046875 5.050781-1.46875 6.367188-3.75 1.320312-2.28125 1.34375-5.085937.066406-7.390625zm-112.195313-57.027343-134.707031 77.769531v-146.367188l104.855469 60.539063c1.179687.683594 2.46875 1.007812 3.742187 1.007812 2.59375 0 5.113282-1.347656 6.5-3.753906 2.074219-3.585938.84375-8.171875-2.742187-10.242188l-112.355469-64.867187v-9.726563l135.164062-78.035156v173.050782c-.160156.199218-.3125.40625-.457031.625zm-142.148437-264.734376 135.160156 78.035157-127.71875 73.738281v-121.988281c0-4.144531-3.355469-7.5-7.5-7.5-4.140625 0-7.5 3.355469-7.5 7.5v122.050781l-127.714844-73.734375zm-142.832032 91.058594 135.273438 78.097656v9.734376l-135.273438 78.101562zm135.277344 105.152344v146.359375l-126.753906-73.179687zm0 0"/></svg>